<svg xmlns="http://www.w3.org/2000/svg" viewBox="0 0 503 503"><path fill="#00BEC1" d="M245.25 1.28c43.46-1.22 87.11 9.46 125.34 30.09 49.95 27.03 90.36 71.48 112.14 123.98 16.29 38.76 22.43 81.69 17.82 123.47-4.36 39.86-18.45 78.63-40.84 111.9-15.47 22.97-34.75 43.39-56.74 60.23-30.88 23.49-67.3 39.65-105.44 46.82-44.16 8.26-90.55 4.4-132.66-11.33-49.05-17.98-91.9-52.01-121.08-95.29-22.24-33.09-36.55-71.53-41.02-111.18-4.8-42.69 1.36-86.62 18.37-126.12C45.47 96.06 92.51 48.31 149.82 22.9c29.96-13.44 62.6-20.79 95.43-21.62"/><path fill="#ffffff" d="M417.414 251.5v-.272h-.062c-.062-5.203-2.028-10.138-5.45-13.785l-107.037-114.23c-7.286-7.774-19.2-7.774-26.49 0-7.286 7.773-7.286 20.48 0 28.253l40.307 42.987H184.325l40.305-42.987c7.288-7.774 7.288-20.48 0-28.254-7.29-7.773-19.202-7.773-26.49 0l-107.1 114.23c-3.422 3.65-5.323 8.586-5.45 13.786h-.062v.61h.062c.065 5.14 2.028 10.138 5.45 13.79l107.037 114.16c7.29 7.773 19.202 7.773 26.49 0 7.29-7.774 7.29-20.48 0-28.25l-40.242-42.99h134.352l-40.242 42.99c-7.29 7.77-7.29 20.476 0 28.25 7.288 7.773 19.202 7.773 26.49 0l107.037-114.16c3.422-3.652 5.323-8.653 5.448-13.79h.062c-.058-.135-.058-.202-.058-.337zm-284.42-.272c5.197-4.458 18.886-17.707 21.103-19.125h194.748l20.787 19.125.76.61 1.586 1.42-23 21.154H155.175c-.318 0-.7.066-1.014.135l-23.7-21.355s.76-.47 1.838-1.418z"/></svg>